/* XPM */
static char *_965cf476501472eeb3c795db5b303e6q0iAwHLpIkpdLac3[] = {
/* columns rows colors chars-per-pixel */
"32 32 2 1 ",
"  c None",
". c #4D00FF",
/* pixels */
"................................",
"................................",
"..                            ..",
"..                            ..",
"..                            ..",
"..                            ..",
"..                            ..",
"..                            ..",
"..                            ..",
"..                            ..",
"..                            ..",
"..                            ..",
"..                            ..",
"..                            ..",
"..                            ..",
"..                            ..",
"..                            ..",
"..                            ..",
"..                            ..",
"..                            ..",
"..                            ..",
"..                            ..",
"..                            ..",
"..                            ..",
"..                            ..",
"..                            ..",
"..                            ..",
"..                            ..",
"..                            ..",
"..                            ..",
"................................",
"................................"
};
