/* XPM */
static char *_46f1dfb5a524ad4a4131600aa4f36e20XgU7toZVpCLBdUs[] = {
/* columns rows colors chars-per-pixel */
"32 32 2 1 ",
"  c None",
". c #B91F9C",
/* pixels */
"................................",
"................................",
"..                            ..",
"..                            ..",
"..                            ..",
"..                            ..",
"..                            ..",
"..                            ..",
"..                            ..",
"..                            ..",
"..                            ..",
"..                     ..     ..",
"..     .              .       ..",
"..    .               ...     ..",
"..    .               . ...   ..",
"..    ..              .....   ..",
"..     ..            .....    ..",
"..     .................      ..",
"..      ...............       ..",
"..       .............        ..",
"..       ............         ..",
"..       .          .         ..",
"..       .          .         ..",
"..       .          .         ..",
"..       .          .         ..",
"..       ..         ..        ..",
"..                            ..",
"..                            ..",
"..                            ..",
"..                            ..",
"................................",
"................................"
};
