/* XPM */
static char *_820598f35034c4390248e9576c9acc2FjNFLxDsUITAGyQ6[] = {
/* columns rows colors chars-per-pixel */
"32 32 2 1 ",
"  c None",
". c white",
/* pixels */
"................................",
"................................",
"..                            ..",
"..                            ..",
"..                            ..",
"..        ............        ..",
"..        .        ...        ..",
"..        .      ..  .        ..",
"..        .    ..    .        ..",
"..        .  ..      .        ..",
"..        .  .       .        ..",
"..        .  .       .        ..",
"..        .  .       .        ..",
"..        .  .       .        ..",
"..        .  .       .        ..",
"..        .  .       .        ..",
"..        .  .       .        ..",
"..        .  .       .        ..",
"..        .  . .     .        ..",
"..        .  .       .        ..",
"..        .  .       .        ..",
"..        .  .       .        ..",
"..        .  .       .        ..",
"..        .  .       .        ..",
"..        .  .       .        ..",
"..        .  .       .        ..",
"..        .  .       .        ..",
"..        ............        ..",
"..                            ..",
"..                            ..",
"................................",
"................................"
};
