/* XPM */
static char *_26f79df81b34ff4e33a93577881b431dUXLWg83DAAR36tu[] = {
/* columns rows colors chars-per-pixel */
"32 32 2 1 ",
"  c None",
". c white",
/* pixels */
"................................",
"................................",
"..                            ..",
"..                            ..",
"..                            ..",
"..                            ..",
"..  .         .        .      ..",
"..   . .       . .      . .   ..",
"................................",
"..  . .       . .      . .    ..",
"..     .         .        .   ..",
"..                            ..",
"..                            ..",
"..        .         .         ..",
"..         . .       . .      ..",
"................................",
"..        . .      .  .       ..",
"..           .         .      ..",
"..                            ..",
"..                            ..",
"..                            ..",
"..  .         .        .      ..",
"..   . .       . .      . .   ..",
"................................",
"..  . .       . .      . .    ..",
"..     .         .        .   ..",
"..                            ..",
"..                            ..",
"..                            ..",
"..                            ..",
"................................",
"................................"
};
