/* XPM */
static char *_8185772c9314434e33dc5ab6dc25ea36wh8CdriU8VoWOMP[] = {
/* columns rows colors chars-per-pixel */
"32 32 2 1 ",
"  c None",
". c #189767",
/* pixels */
"................................",
"................................",
"..                            ..",
"..                            ..",
"..                            ..",
"..                            ..",
"..                            ..",
"..                            ..",
"..                            ..",
"..                            ..",
"..                            ..",
"..                            ..",
"..                            ..",
"..                            ..",
"..                            ..",
"..                            ..",
"..                            ..",
"..                            ..",
"..                            ..",
"..                            ..",
"..                            ..",
"..                            ..",
"..                            ..",
"..                            ..",
"..                            ..",
"..                            ..",
"..                            ..",
"..                            ..",
"..                            ..",
"..                            ..",
"................................",
"................................"
};
