/* XPM */
static char *e9e2e7743ab245baa3cea2657767ab60ygy8p3PH8hWGLldS[] = {
/* columns rows colors chars-per-pixel */
"32 32 2 1 ",
"  c None",
". c #00CCFF",
/* pixels */
"................................",
"................................",
"..                            ..",
"..                            ..",
"..                            ..",
"..            ...             ..",
"..           .....            ..",
"..            ...             ..",
"..            ...             ..",
"..             .              ..",
"..           .....            ..",
"..          . ... .           ..",
"..         .  ...  .          ..",
"..        .   ...   .         ..",
"..            ...             ..",
"..            ...             ..",
"..            ...             ..",
"..            ...             ..",
"..            ...             ..",
"..           .....            ..",
"..           .   .            ..",
"..           .   .            ..",
"..           .   .            ..",
"..           .   .            ..",
"..           .   .            ..",
"..           .   .            ..",
"..           .   .            ..",
"..          ..   ..           ..",
"..                            ..",
"..                            ..",
"................................",
"................................"
};
