/* XPM */
static char *_5d9cffc60d649a0adb259a9a4cd0063wxna7L7DHF0V5CqT[] = {
/* columns rows colors chars-per-pixel */
"32 32 2 1 ",
"  c None",
". c red",
/* pixels */
"................................",
"................................",
"..                            ..",
"..                            ..",
"..                            ..",
"..                            ..",
"..                            ..",
"..                            ..",
"..                            ..",
"..                            ..",
"..                            ..",
"..                            ..",
"..                            ..",
"..                            ..",
"..                            ..",
"..                            ..",
"..                            ..",
"..                            ..",
"..                            ..",
"..                            ..",
"..                            ..",
"..                            ..",
"..                            ..",
"..                            ..",
"..                            ..",
"..                            ..",
"..                            ..",
"..                            ..",
"..                            ..",
"..                            ..",
"................................",
"................................"
};
